<?xml version="1.0" encoding="UTF-8" standalone="no"?>
<!-- Created with Inkscape (http://www.inkscape.org/) -->

<svg
   width="256.05667"
   height="256.08682"
   viewBox="0 0 67.748326 67.756305"
   version="1.1"
   id="svg1"
   xml:space="preserve"
   inkscape:version="1.3 (0e150ed6c4, 2023-07-21)"
   sodipodi:docname="attack_strength_icon.svg"
   inkscape:export-filename="mill.svg"
   inkscape:export-xdpi="96"
   inkscape:export-ydpi="96"
   xmlns:inkscape="http://www.inkscape.org/namespaces/inkscape"
   xmlns:sodipodi="http://sodipodi.sourceforge.net/DTD/sodipodi-0.dtd"
   xmlns="http://www.w3.org/2000/svg"
   xmlns:svg="http://www.w3.org/2000/svg"><sodipodi:namedview
     id="namedview1"
     pagecolor="#ffffff"
     bordercolor="#666666"
     borderopacity="1.0"
     inkscape:showpageshadow="2"
     inkscape:pageopacity="0.0"
     inkscape:pagecheckerboard="0"
     inkscape:deskcolor="#d1d1d1"
     inkscape:document-units="px"
     inkscape:zoom="2.3395533"
     inkscape:cx="265.649"
     inkscape:cy="49.795831"
     inkscape:window-width="3840"
     inkscape:window-height="2071"
     inkscape:window-x="-9"
     inkscape:window-y="-9"
     inkscape:window-maximized="1"
     inkscape:current-layer="layer1"
     inkscape:export-bgcolor="#ffffff00" /><defs
     id="defs1" /><g
     inkscape:label="Layer 1"
     inkscape:groupmode="layer"
     id="layer1"
     transform="translate(0.00749715,0.01148581)"><path
       style="fill:#000000;fill-opacity:1;stroke-width:0.366318"
       d="m 4.4508979,67.596448 c -0.45872,-0.198767 -3.98843905,-3.746728 -4.25374305,-4.275732 -0.256599,-0.511624 -0.261187,-1.110113 -0.0118,-1.623912 0.121934,-0.251797 1.59494605,-1.828295 4.02701205,-4.309795 2.109139,-2.15202 3.814468,-3.9607 3.789622,-4.01928 -0.02491,-0.0585 -0.877477,-1.94412 -1.894732,-4.19009 -2.008537,-4.43463 -2.05006,-4.56766 -1.694119,-5.42716 0.220464,-0.53234 2.671175,-3.00569 3.227718,-3.25753 0.996565,-0.45095 1.589242,-0.19846 3.2617791,1.38963 0.696163,0.66102 1.384591,1.30898 1.52981,1.43991 l 0.264058,0.23806 1.813981,-1.78892 c 0.997707,-0.98392 2.51215,-2.47563 3.36545,-3.31494 l 1.551456,-1.526 5.689166,5.69375 5.689167,5.69376 -3.28639,3.3438 c -1.80753,1.83909 -3.2885,3.3714 -3.29107,3.40514 -0.0026,0.0337 0.632207,0.73157 1.410576,1.55076 0.778383,0.81916 1.503194,1.66134 1.610692,1.8715 0.258015,0.5044 0.25926,1.16237 0.004,1.65326 -0.111314,0.21323 -0.84921,1.025365 -1.639904,1.804746 -1.534163,1.51223 -1.841043,1.704888 -2.561658,1.608243 -0.20599,-0.02761 -2.272517,-0.909582 -4.592286,-1.959901 l -4.217807,-1.909658 -3.894813,3.845716 c -2.1421521,2.115133 -4.0595401,3.92974 -4.2608881,4.032461 -0.439591,0.224264 -1.15782,0.238412 -1.633768,0.03216 z m 57.2323161,0.0011 c -0.159916,-0.08627 -2.040895,-1.902281 -4.179941,-4.035677 l -3.889161,-3.878902 -4.200657,1.908887 c -2.789673,1.267706 -4.352641,1.926887 -4.653201,1.962496 -0.831313,0.09847 -1.167063,-0.115234 -2.825716,-1.79834 -1.321357,-1.340843 -1.507456,-1.569643 -1.608478,-1.977543 -0.124162,-0.50108 -0.08103,-0.8077 0.186834,-1.33178 0.09532,-0.18657 4.134486,-4.29258 8.975754,-9.12446 9.321087,-9.303 9.043052,-9.0496 9.894635,-9.01759 0.649382,0.0244 1.10561,0.35012 2.553933,1.82324 1.539407,1.56576 1.703218,1.83526 1.605868,2.64195 -0.03488,0.2899 -0.722976,1.92599 -1.957312,4.65459 l -1.903346,4.20756 3.879525,3.88541 c 2.631959,2.63596 3.927656,4.001298 4.029201,4.245755 0.208009,0.500769 0.186835,1.076412 -0.0573,1.55773 -0.235607,0.464517 -3.296498,3.612624 -3.960447,4.073271 -0.531972,0.369091 -1.408033,0.463363 -1.890209,0.203403 z M 21.699448,33.077249 C 7.2028909,18.563509 2.7707829,14.071959 2.5195469,13.640119 c -0.179702,-0.30887 -0.404689,-0.79794 -0.499994,-1.08681 -0.271139,-0.82186 -2.02705005,-9.8535397 -2.02705005,-10.4262697 0,-0.88982 0.578123,-1.70376996 1.45094605,-2.04277996 0.467478,-0.18159 1.160835,-0.0902 4.848964,0.63915 6.5223141,1.28982996 6.8408621,1.37967996 7.9475881,2.24175996 0.293192,0.22839 8.907024,8.7925097 19.141841,19.0313897 l 18.608795,18.61615 -5.669408,5.67003 c -3.118187,3.11851 -5.691751,5.67003 -5.719008,5.67003 -0.02727,0 -8.53354,-8.49398 -18.902773,-18.87552 z m 20.908164,-7.95383 -5.687817,-5.68843 8.165615,-8.15023 c 4.491096,-4.4826297 8.346273,-8.2878497 8.567105,-8.4560497 0.5964,-0.45429 1.588364,-0.83741 2.893854,-1.11768 3.172349,-0.68106 8.678981,-1.72518996 9.08426,-1.72250996 0.556582,0.003 1.058843,0.22926 1.505895,0.67631 0.430465,0.43046996 0.604306,0.85532996 0.604306,1.47695996 0,0.49216 -1.718702,9.4157897 -1.979273,10.2765197 -0.178142,0.58847 -0.584391,1.38683 -0.986484,1.93867 -0.178757,0.2453 -3.959778,4.048 -8.402309,8.45045 l -8.077323,8.00444 z"
       id="barracks"
       inkscape:export-filename="barracks.svg"
       inkscape:export-xdpi="96"
       inkscape:export-ydpi="96" /></g></svg>
