<?xml version="1.0" encoding="UTF-8" standalone="no"?>
<!-- Created with Inkscape (http://www.inkscape.org/) -->

<svg
   width="256.20306"
   height="204.75574"
   viewBox="0 0 67.787059 54.174955"
   version="1.1"
   id="svg1"
   xml:space="preserve"
   inkscape:version="1.3 (0e150ed6c4, 2023-07-21)"
   sodipodi:docname="icons_drawing.svg"
   inkscape:export-filename="mill.svg"
   inkscape:export-xdpi="96"
   inkscape:export-ydpi="96"
   xmlns:inkscape="http://www.inkscape.org/namespaces/inkscape"
   xmlns:sodipodi="http://sodipodi.sourceforge.net/DTD/sodipodi-0.dtd"
   xmlns="http://www.w3.org/2000/svg"
   xmlns:svg="http://www.w3.org/2000/svg"><sodipodi:namedview
     id="namedview1"
     pagecolor="#ffffff"
     bordercolor="#666666"
     borderopacity="1.0"
     inkscape:showpageshadow="2"
     inkscape:pageopacity="0.0"
     inkscape:pagecheckerboard="0"
     inkscape:deskcolor="#d1d1d1"
     inkscape:document-units="px"
     inkscape:zoom="2.3395533"
     inkscape:cx="265.64901"
     inkscape:cy="49.3684"
     inkscape:window-width="3840"
     inkscape:window-height="2071"
     inkscape:window-x="-9"
     inkscape:window-y="-9"
     inkscape:window-maximized="1"
     inkscape:current-layer="layer1"
     inkscape:export-bgcolor="#ffffff00" /><defs
     id="defs1" /><g
     inkscape:label="Layer 1"
     inkscape:groupmode="layer"
     id="layer1"
     transform="translate(0.02686098,-6.779191)"><path
       style="fill:#1e3050;fill-opacity:1;stroke-width:0.4717"
       d="M 4.3388049,60.900436 C 2.170504,60.449726 0.8004205,59.240647 0.17886,57.229322 L -3.7062794e-4,56.649339 -0.02190481,41.032903 C -0.03694049,30.216411 -0.01808212,25.297376 0.03900248,25.028978 0.15712191,24.473513 0.43867174,24.108483 0.91509952,23.892979 1.302256,23.717858 1.386061,23.711467 3.2926641,23.711467 c 1.4385088,0 2.0711677,0.02856 2.3250289,0.104969 0.4251408,0.127916 0.8898714,0.590545 1.0032125,0.998662 0.049057,0.176652 0.08104,1.35216 0.081422,2.984586 l 3.566e-4,2.693154 H 10.11273 13.522775 V 19.45278 c 0,-7.735158 0.02549,-11.1590282 0.08525,-11.4374932 0.101683,-0.4744731 0.438342,-0.8912333 0.882864,-1.0931794 0.275012,-0.1249365 0.545336,-0.1413241 2.355457,-0.1428328 2.290714,-0.00217 2.525653,0.034914 2.954017,0.4633086 0.442954,0.4429593 0.465011,0.6132743 0.465011,3.5934078 v 2.684156 h 2.552998 2.553011 l 0.02395,-2.731899 c 0.02612,-2.9838853 0.03925,-3.0761178 0.506194,-3.5636631 0.408984,-0.4269884 0.629588,-0.4585442 3.021959,-0.4322266 l 2.179106,0.02393 0.332136,0.2335784 c 0.659392,0.4637174 0.646535,0.3943749 0.672529,3.6220973 l 0.02294,2.848153 h 1.736636 1.736636 l 0.02294,-2.848153 c 0.02599,-3.2277224 0.01313,-3.1583799 0.67253,-3.6220973 l 0.332148,-0.2335784 2.179094,-0.02393 c 2.392383,-0.0263 2.612975,0.00535 3.021945,0.4322266 0.466999,0.4875453 0.480099,0.5797778 0.506207,3.5636631 l 0.02395,2.731899 h 2.550245 2.550234 l 0.02204,-2.809399 c 0.02103,-2.6755223 0.02982,-2.8241859 0.184034,-3.1194208 0.08907,-0.1704971 0.309926,-0.4146259 0.490865,-0.5424994 l 0.32895,-0.2325004 2.179106,-0.02393 c 1.860426,-0.020476 2.22708,-0.00535 2.507355,0.1014145 0.4631,0.1768567 0.844025,0.6255182 0.949785,1.1186152 0.06053,0.2822698 0.08588,3.6564669 0.08588,11.4404019 v 11.040069 h 3.410033 3.410033 l 3.57e-4,-2.693155 c 2.67e-4,-1.640141 0.03224,-2.80762 0.08168,-2.98591 0.113532,-0.408601 0.479625,-0.795691 0.909595,-0.961609 0.318566,-0.122923 0.61858,-0.140656 2.37954,-0.140656 h 2.015025 l 0.42625,0.211042 c 0.494471,0.244808 0.733525,0.555617 0.851059,1.10647 0.05746,0.269196 0.07595,5.155682 0.06078,16.003935 l -0.02179,15.616424 -0.179052,0.579985 c -0.542597,1.75768 -1.669369,2.904605 -3.455802,3.517622 -0.468514,0.160777 -0.542878,0.161919 -11.960962,0.184466 l -11.489504,0.02263 v -7.022753 c 0,-6.753847 -0.0064,-7.052348 -0.157429,-7.79535 -0.55599,-2.728245 -2.615447,-4.773185 -5.382194,-5.344234 -0.885412,-0.182741 -1.597976,-0.182741 -2.483401,0 -1.418758,0.292832 -2.520887,0.881007 -3.516581,1.876694 -0.894357,0.894359 -1.430635,1.818151 -1.817435,3.130768 -0.155657,0.528232 -0.160525,0.73479 -0.185359,7.846963 l -0.02548,7.304463 -11.293122,-0.0087 C 9.5757898,60.936676 4.4241262,60.918531 4.3388813,60.900756 Z"
       id="castle"
       inkscape:export-filename="castle.svg"
       inkscape:export-xdpi="96"
       inkscape:export-ydpi="96"
       inkscape:label="path10" /></g></svg>
