<?xml version="1.0" encoding="UTF-8" standalone="no"?>
<!-- Created with Inkscape (http://www.inkscape.org/) -->

<svg
   width="190.12016"
   height="256.00006"
   viewBox="0 0 50.302625 67.733349"
   version="1.1"
   id="svg1"
   xml:space="preserve"
   inkscape:version="1.3 (0e150ed6c4, 2023-07-21)"
   sodipodi:docname="icons_drawing.svg"
   inkscape:export-filename="mill.svg"
   inkscape:export-xdpi="96"
   inkscape:export-ydpi="96"
   xmlns:inkscape="http://www.inkscape.org/namespaces/inkscape"
   xmlns:sodipodi="http://sodipodi.sourceforge.net/DTD/sodipodi-0.dtd"
   xmlns="http://www.w3.org/2000/svg"
   xmlns:svg="http://www.w3.org/2000/svg"><sodipodi:namedview
     id="namedview1"
     pagecolor="#ffffff"
     bordercolor="#666666"
     borderopacity="1.0"
     inkscape:showpageshadow="2"
     inkscape:pageopacity="0.0"
     inkscape:pagecheckerboard="0"
     inkscape:deskcolor="#d1d1d1"
     inkscape:document-units="px"
     inkscape:zoom="2.3395533"
     inkscape:cx="265.64901"
     inkscape:cy="49.3684"
     inkscape:window-width="3840"
     inkscape:window-height="2071"
     inkscape:window-x="-9"
     inkscape:window-y="-9"
     inkscape:window-maximized="1"
     inkscape:current-layer="layer1"
     inkscape:export-bgcolor="#ffffff00" /><defs
     id="defs1" /><g
     inkscape:label="Layer 1"
     inkscape:groupmode="layer"
     id="layer1"
     transform="translate(-8.715354)"><path
       id="cottage"
       style="fill:#1e3050;fill-opacity:1;stroke-width:0.267743"
       d="m 33.871774,3.8175e-4 c -12.16518,0 -12.26224,0.001 -12.7881,0.14624 -0.65762,0.18142 -1.05285,0.40771 -1.56858,0.89851995 -1.19448,1.13674 -1.47191,3.14174 -0.651,4.70397 0.56111,1.06778 1.85479,1.89895 2.96203,1.90316 0.15739,6.8e-4 0.32704,0.0271 0.37703,0.0588 0.073,0.0463 0.087,1.21851 0.071,5.9672003 -0.0185,5.452715 -0.0297,5.929852 -0.14389,6.172544 -0.21035,0.44681 -0.51944,0.730077 -1.38249,1.266681 -4.18458,2.601755 -7.28551,6.043694 -9.47133,10.513178 -1.5395805,3.14808 -2.3308305,6.306596 -2.5491505,10.174876 -0.0474,0.84118 0.0508,2.632391 0.21543,3.922381 0.48228,3.781533 1.7502805,7.290082 3.7048705,10.363603 l -0.0332,0.0021 a 25.131985,25.131985 0 0 0 0.33427,0.465859 c 0.27256,0.407416 0.56016,0.804532 0.85771,1.19516 a 25.131985,25.131985 0 0 0 0.8729,1.093324 c 0.15668,0.181648 0.31119,0.351254 0.46297,0.51317 a 25.131985,25.131985 0 0 0 18.66647,8.372193 25.131985,25.131985 0 0 0 17.5207,-7.18948 25.131985,25.131985 0 0 0 5.5e-4,-2.7e-4 c 0.71298,-0.54108 1.41621,-1.271469 2.22359,-2.277414 3.27972,-4.086308 5.08854,-8.937484 5.42802,-14.557582 0.23663,-3.91725 -0.68931,-8.364212 -2.51497,-12.078308 -2.11619,-4.305091 -5.05596,-7.681042 -8.85148,-10.164918 -1.79357,-1.173758 -1.95566,-1.332627 -2.08923,-2.047045 -0.0441,-0.235926 -0.0714,-2.538222 -0.0714,-6.031532 0,-6.2824903 -0.0464,-5.7360103 0.48675,-5.7360103 1.08309,0 2.38251,-0.84397 2.94375,-1.91201 0.81147,-1.5442199 0.52877,-3.56631 -0.65623,-4.6940199 -0.51575,-0.49082005 -0.91098,-0.71711005 -1.5686,-0.89851005 -0.52586,-0.1451 -0.6229,-0.14625 -12.78808,-0.14625 z m -3.85347,7.72161995 h 3.85347 3.85347 l 0.0272,6.0391503 c 0.0263,5.844976 0.0322,6.065106 0.18125,6.846071 0.36571,1.916386 1.10289,3.500226 2.25556,4.846066 0.56599,0.660857 1.16497,1.156109 2.28971,1.893183 1.27164,0.833354 1.91568,1.293981 2.51415,1.797856 3.4631,2.915792 5.59985,6.876612 6.15635,11.412238 0.0573,0.467548 0.12453,1.113087 0.14929,1.434525 l 0.045,0.584433 -0.4476,-0.0114 c -0.24618,-0.0063 -0.55917,-0.02155 -0.69554,-0.03399 -0.13637,-0.01253 -0.74205,-0.05784 -1.34595,-0.100735 -1.45973,-0.103749 -3.56655,-0.37017 -4.74619,-0.600208 -1.58837,-0.309747 -3.95686,-1.09748 -6.24822,-2.077897 -1.4009,-0.59941 -3.43647,-1.291473 -4.50141,-1.530403 -2.38093,-0.534199 -6.05168,-0.601379 -9.44005,-0.172953 -2.91515,0.368603 -4.8786,0.864632 -6.57046,1.66019 -0.5396,0.253729 -0.65517,0.287111 -0.65472,0.188727 0.001,-0.200035 0.33578,-1.743765 0.49755,-2.294019 0.51061,-1.736842 1.22492,-3.291174 2.13158,-4.637834 1.24649,-1.851405 3.24082,-3.847709 4.98569,-4.990666 0.27272,-0.178653 0.81465,-0.533836 1.20427,-0.789339 2.36804,-1.552913 3.73882,-3.651166 4.29734,-6.577789 0.14904,-0.780965 0.15482,-1.001095 0.1811,-6.846066 z"
       inkscape:export-filename="cottage.svg"
       inkscape:export-xdpi="96"
       inkscape:export-ydpi="96" /></g></svg>
