<?xml version="1.0" encoding="UTF-8" standalone="no"?>
<svg
   height="16"
   width="16"
   viewBox="0 0 512 512"
   version="1.1"
   id="svg1"
   sodipodi:docname="send_icon.svg"
   inkscape:version="1.3 (0e150ed6c4, 2023-07-21)"
   xml:space="preserve"
   xmlns:inkscape="http://www.inkscape.org/namespaces/inkscape"
   xmlns:sodipodi="http://sodipodi.sourceforge.net/DTD/sodipodi-0.dtd"
   xmlns="http://www.w3.org/2000/svg"
   xmlns:svg="http://www.w3.org/2000/svg"><defs
     id="defs1" /><sodipodi:namedview
     id="namedview1"
     pagecolor="#ffffff"
     bordercolor="#666666"
     borderopacity="1.0"
     inkscape:showpageshadow="2"
     inkscape:pageopacity="0.0"
     inkscape:pagecheckerboard="0"
     inkscape:deskcolor="#d1d1d1"
     inkscape:zoom="41.03429"
     inkscape:cx="17.144198"
     inkscape:cy="5.2760752"
     inkscape:window-width="3840"
     inkscape:window-height="2071"
     inkscape:window-x="-9"
     inkscape:window-y="-9"
     inkscape:window-maximized="1"
     inkscape:current-layer="svg1" /><!--!Font Awesome Free 6.5.1 by @fontawesome - https://fontawesome.com License - https://fontawesome.com/license/free Copyright 2024 Fonticons, Inc.--><path
     style="fill:#000000;stroke-width:1.24674"
     d="M 28.001913,482.40318 C 16.611835,479.19397 5.9057789,468.67956 1.8740554,456.74305 0.38657325,452.33916 -0.28245084,445.17523 0.36646338,440.59981 1.5862336,431.99932 3.2710368,428.55984 38.552763,362.64419 c 18.846864,-35.21093 35.021651,-65.1167 35.943987,-66.45726 3.462351,-5.03236 8.775247,-8.68724 15.072142,-10.36852 1.657525,-0.44256 42.321998,-5.73152 90.365388,-11.75326 48.04352,-6.02173 88.09345,-11.23992 89.00008,-11.59598 1.96723,-0.77259 3.80604,-3.56576 3.80903,-5.78588 0,-2.74989 -1.51179,-5.50405 -3.55794,-6.46612 -1.24574,-0.58576 -32.35532,-4.72013 -90.40053,-12.01397 -70.14168,-8.81386 -89.185096,-11.37979 -91.798394,-12.36906 -4.675863,-1.77006 -8.359049,-4.41117 -11.250058,-8.06713 C 71.833346,212.83113 4.1817534,86.904541 2.4114614,81.279936 -2.7501676,64.880244 0.3255704,51.735723 12.109705,39.833447 19.872277,31.993054 26.689635,29.103853 37.340112,29.140806 48.263923,29.178707 15.63372,15.440574 414.16154,187.79211 c 40.95606,17.71229 76.12664,33.18454 78.15683,34.38279 4.3738,2.58148 12.27275,10.27281 14.51451,14.13291 5.55496,9.56567 6.73874,22.56375 3.02695,33.2371 -2.8362,8.15532 -9.89236,16.29387 -18.23091,21.02727 -3.35771,1.90604 -166.87776,72.7976 -418.84879,181.5854 -10.575273,4.56584 -21.048869,8.8224 -23.274644,9.45901 -5.507212,1.57515 -17.188304,2.00244 -21.503573,0.78659 z"
     id="path2" /></svg>
