<?xml version="1.0" encoding="UTF-8" standalone="no"?>
<svg
   height="512"
   width="512"
   viewBox="0 0 16384 16384"
   version="1.1"
   id="svg1"
   sodipodi:docname="logo.svg"
   inkscape:version="1.3 (0e150ed6c4, 2023-07-21)"
   xmlns:inkscape="http://www.inkscape.org/namespaces/inkscape"
   xmlns:sodipodi="http://sodipodi.sourceforge.net/DTD/sodipodi-0.dtd"
   xmlns="http://www.w3.org/2000/svg"
   xmlns:svg="http://www.w3.org/2000/svg">
  <defs
     id="defs1" />
  <sodipodi:namedview
     id="namedview1"
     pagecolor="#ffffff"
     bordercolor="#666666"
     borderopacity="1.0"
     inkscape:showpageshadow="2"
     inkscape:pageopacity="0.0"
     inkscape:pagecheckerboard="0"
     inkscape:deskcolor="#d1d1d1"
     inkscape:zoom="1.2823216"
     inkscape:cx="499.48469"
     inkscape:cy="203.92701"
     inkscape:window-width="3840"
     inkscape:window-height="2071"
     inkscape:window-x="-9"
     inkscape:window-y="-9"
     inkscape:window-maximized="1"
     inkscape:current-layer="svg1" />
  <circle
     style="fill:#efbd10;fill-rule:evenodd;stroke-width:11958.9;stroke-linecap:round;stroke-linejoin:bevel;paint-order:stroke markers fill;fill-opacity:0.26249999"
     id="path2"
     cx="8192"
     cy="8192"
     r="8192" />
  <!--!Font Awesome Free 6.5.1 by @fontawesome - https://fontawesome.com License - https://fontawesome.com/license/free Copyright 2023 Fonticons, Inc.-->
  <path
     opacity="1"
     fill="#1E3050"
     d="m 8628.159,5076.5791 c 236.7718,-145.3864 394.6196,-409.1585 394.6196,-706.162 0,-459.0054 -371.774,-830.779 -830.7791,-830.779 -459.005,0 -830.779,371.7736 -830.779,830.779 0,299.0802 157.8478,560.7756 394.621,706.162 L 6565.7498,7456.7607 c -189.002,378.0043 -679.1612,486.0056 -1009.3954,222.2334 L 3705.7937,6198.1305 c 103.8472,-139.1553 166.1558,-311.542 166.1558,-498.4671 0,-459.0054 -371.7735,-830.7792 -830.779,-830.7792 -459.0053,0 -830.7789,371.7738 -830.7789,830.7792 0,459.0053 371.7736,830.7788 830.7789,830.7788 4.1539,0 10.3847,0 14.5387,0 l 949.165,5221.4458 c 114.232,631.392 664.6229,1092.474 1308.4767,1092.474 H 11070.65 c 641.775,0 1192.167,-459.005 1308.475,-1092.474 l 949.166,-5221.4457 c 4.154,0 10.384,0 14.538,0 459.005,0 830.779,-371.7734 830.779,-830.7788 0,-459.0053 -371.774,-830.7792 -830.779,-830.7792 -459.005,0 -830.779,371.7739 -830.779,830.7792 0,186.9252 62.309,359.3118 166.157,498.4672 l -1850.56,1480.8635 c -330.235,263.7723 -820.396,155.7709 -1009.3974,-222.2334 z"
     id="path1"
     style="fill:#efbd10;fill-opacity:1;stroke-width:20.7695" />
</svg>
