<?xml version="1.0" encoding="UTF-8" standalone="no"?>
<!-- Created with Inkscape (http://www.inkscape.org/) -->

<svg
   width="248.49103"
   height="256.56842"
   viewBox="0 0 65.746583 67.883728"
   version="1.1"
   id="svg1"
   xml:space="preserve"
   inkscape:version="1.3 (0e150ed6c4, 2023-07-21)"
   sodipodi:docname="icons_drawing.svg"
   inkscape:export-filename="mill.svg"
   inkscape:export-xdpi="96"
   inkscape:export-ydpi="96"
   xmlns:inkscape="http://www.inkscape.org/namespaces/inkscape"
   xmlns:sodipodi="http://sodipodi.sourceforge.net/DTD/sodipodi-0.dtd"
   xmlns="http://www.w3.org/2000/svg"
   xmlns:svg="http://www.w3.org/2000/svg"><sodipodi:namedview
     id="namedview1"
     pagecolor="#ffffff"
     bordercolor="#666666"
     borderopacity="1.0"
     inkscape:showpageshadow="2"
     inkscape:pageopacity="0.0"
     inkscape:pagecheckerboard="0"
     inkscape:deskcolor="#d1d1d1"
     inkscape:document-units="px"
     inkscape:zoom="2.3395533"
     inkscape:cx="265.64901"
     inkscape:cy="49.3684"
     inkscape:window-width="3840"
     inkscape:window-height="2071"
     inkscape:window-x="-9"
     inkscape:window-y="-9"
     inkscape:window-maximized="1"
     inkscape:current-layer="layer1"
     inkscape:export-bgcolor="#ffffff00" /><defs
     id="defs1" /><g
     inkscape:label="Layer 1"
     inkscape:groupmode="layer"
     id="layer1"
     transform="translate(-0.99337352,0.07519793)"><path
       style="fill:#1e3050;fill-opacity:1;stroke-width:0.293641"
       d="M 10.384684,67.730477 C 7.2111336,67.27316 4.5223836,65.03643 3.5120736,62.013258 c -0.49278,-1.474546 -0.46835,-0.362769 -0.46885,-21.330683 -2.5e-4,-10.501072 0.0159,-19.092871 0.0357,-19.092871 0.0199,0 0.25589,0.12075 0.52443,0.268351 1.65883,0.911706 3.58652,1.360016 5.84901,1.360281 2.1799504,2.43e-4 3.7883304,-0.400278 5.7781004,-1.438859 l 0.96187,-0.502056 0.55347,0.489964 c 4.29566,3.802786 10.78005,4.652822 16.09194,2.10949 1.04245,-0.499126 2.26997,-1.305153 3.1255,-2.052295 l 0.63935,-0.558354 0.68141,0.390011 c 1.31514,0.752735 2.96365,1.299373 4.50274,1.493102 1.04645,0.131716 3.17794,0.05018 4.16451,-0.159435 1.5043,-0.31951 2.78327,-0.81751 3.92144,-1.526909 l 0.56558,-0.352501 3.66933,0.03681 c 3.7727,0.0378 4.06577,0.0599 5.22318,0.393347 1.71808,0.495038 3.22364,1.384827 4.49592,2.657101 1.33956,1.339558 2.26244,3.068961 2.65057,4.966949 0.25564,1.250071 0.28215,2.265809 0.25351,9.711579 -0.028,7.282756 -0.0307,7.390821 -0.20012,8.137797 -0.68885,3.036712 -2.42433,5.275718 -5.29642,6.83312 -0.27775,0.150615 -2.97852,1.387091 -6.00173,2.747737 l -5.49672,2.473904 -7.2e-4,0.314482 c -7.4e-4,0.492483 -0.21509,1.792542 -0.39611,2.402165 -0.92989,3.131779 -3.70968,5.487705 -7.01795,5.94785 -0.73453,0.102117 -31.22677,0.09946 -31.93661,-0.0033 z m 8.54755,-12.892728 c 0.44169,-0.227326 0.84273,-0.708317 0.98706,-1.183836 0.0785,-0.258637 0.0992,-2.623093 0.0992,-11.320371 0,-10.596902 -0.005,-11.007205 -0.14695,-11.374427 -0.38324,-0.9936 -1.3568,-1.509491 -2.42869,-1.286973 -0.77823,0.161569 -1.30631,0.608585 -1.53605,1.300258 -0.11244,0.338519 -0.12263,1.464809 -0.10417,11.520278 l 0.0205,11.145077 0.21252,0.403074 c 0.38251,0.725448 0.9841,1.041908 1.92614,1.013207 0.45056,-0.01371 0.67333,-0.06333 0.97043,-0.216287 z m 8.42821,0.04764 c 0.5044,-0.256394 0.84734,-0.661568 1.0125,-1.196336 0.14896,-0.482262 0.15288,-0.773711 0.15288,-11.349605 0,-11.898186 0.0237,-11.281953 -0.45973,-11.949323 -0.72882,-1.006111 -2.62479,-1.006111 -3.35361,0 -0.48343,0.667336 -0.45973,0.05194 -0.45973,11.940571 0,11.631782 -0.01,11.331446 0.38866,11.912975 0.20817,0.303806 0.56877,0.568234 0.98786,0.724397 0.39478,0.147101 1.3708,0.100457 1.73117,-0.08267 z m 8.30454,0.07615 c 0.47397,-0.167238 0.80962,-0.45599 1.06427,-0.915563 l 0.22618,-0.408224 0.0205,-11.145077 c 0.0184,-10.05547 0.008,-11.181758 -0.10414,-11.520278 -0.22974,-0.691674 -0.75781,-1.13869 -1.53604,-1.300257 -1.04455,-0.216839 -2.0253,0.284232 -2.42832,1.240631 -0.14187,0.336664 -0.14815,0.748314 -0.16982,11.109988 -0.0234,11.155366 -0.0165,11.432858 0.29644,12.04626 0.18331,0.359321 0.62703,0.734378 1.04394,0.882408 0.4137,0.146891 1.18543,0.151809 1.58705,0.0099 z m 17.95862,-6.878782 c 4.15675,-1.854267 4.33119,-1.956508 4.5404,-2.660979 0.17772,-0.598461 0.17726,-13.97031 -7.3e-4,-14.568903 -0.14351,-0.483235 -0.41511,-0.821688 -0.84305,-1.050617 -0.31536,-0.168686 -0.37788,-0.17177 -3.95254,-0.194404 l -3.63211,-0.02298 v 10.110043 c 0,6.139601 0.0281,10.099875 0.0716,10.084149 0.0395,-0.01425 1.75669,-0.777569 3.81617,-1.696281 z M 25.612364,21.037451 c -1.39889,-0.09946 -2.81214,-0.484161 -4.03938,-1.09941 -0.95034,-0.476436 -1.63972,-0.976138 -2.60432,-1.887732 -0.9811,-0.92719 -1.3962,-1.166154 -2.25714,-1.299418 -0.68752,-0.106428 -1.36827,0.01111 -1.85594,0.319776 -0.19427,0.123049 -0.66031,0.418414 -1.03566,0.656374 -1.99796,1.266614 -4.6756504,1.566938 -7.0123104,0.786475 -1.38832,-0.463716 -2.26924,-1.013527 -3.34221,-2.086026 -1.1805,-1.179968 -1.8362,-2.310213 -2.26773,-3.90896 -0.18176,-0.673416 -0.20430003,-0.898277 -0.20430003,-2.038812 0,-1.1477736 0.0219,-1.3632306 0.20923003,-2.0588496 0.84497,-3.137538 3.35052,-5.535669 6.46285,-6.185786 2.4474404,-0.511217 4.6071104,-0.07371 6.6950304,1.35618 0.96045,0.657765 1.5939,0.800214 2.6048,0.585718 0.66421,-0.140935 1.11808,-0.421608 1.94036,-1.199939 1.53102,-1.44917 2.88241,-2.21883698 4.74657,-2.70335198 3.13379,-0.814492 6.52842,-0.182401 9.03243,1.68185798 0.29786,0.221767 0.85701,0.707046 1.24256,1.078411 0.96044,0.925101 1.63496,1.230376 2.71858,1.230376 0.58115,0 1.05116,-0.177892 1.7409,-0.658892 1.13206,-0.789482 2.29099,-1.26898 3.55143,-1.469362 0.97305,-0.154705 1.5595,-0.156617 2.54345,-0.0089 2.37381,0.357794 4.28236,1.482888 5.66351,3.338648 2.15412,2.894329 2.24047,6.6873756 0.22202,9.7525246 -0.35565,0.540073 -1.31108,1.546857 -1.89431,1.996129 -2.4879,1.916479 -6.1938,2.264935 -8.98076,0.844454 -0.19866,-0.101241 -0.70044,-0.411474 -1.11506,-0.689362 -0.97429,-0.652981 -1.50368,-0.780707 -2.47351,-0.596781 -0.74139,0.140602 -1.16369,0.398178 -2.09354,1.276926 -0.48446,0.457847 -1.12891,0.999844 -1.43212,1.204448 -1.94164,1.310204 -4.37898,1.952453 -6.76543,1.782695 z"
       id="brewery"
       inkscape:export-filename="brewery.svg"
       inkscape:export-xdpi="96"
       inkscape:export-ydpi="96" /></g></svg>
