<?xml version="1.0" encoding="UTF-8" standalone="no"?>
<!-- Created with Inkscape (http://www.inkscape.org/) -->

<svg
   width="256"
   height="256"
   viewBox="0 0 67.733332 67.733333"
   version="1.1"
   id="svg1"
   xml:space="preserve"
   inkscape:version="1.3 (0e150ed6c4, 2023-07-21)"
   sodipodi:docname="icons_drawing.svg"
   inkscape:export-filename="mill.svg"
   inkscape:export-xdpi="96"
   inkscape:export-ydpi="96"
   xmlns:inkscape="http://www.inkscape.org/namespaces/inkscape"
   xmlns:sodipodi="http://sodipodi.sourceforge.net/DTD/sodipodi-0.dtd"
   xmlns="http://www.w3.org/2000/svg"
   xmlns:svg="http://www.w3.org/2000/svg"><sodipodi:namedview
     id="namedview1"
     pagecolor="#ffffff"
     bordercolor="#666666"
     borderopacity="1.0"
     inkscape:showpageshadow="2"
     inkscape:pageopacity="0.0"
     inkscape:pagecheckerboard="0"
     inkscape:deskcolor="#d1d1d1"
     inkscape:document-units="px"
     inkscape:zoom="0.82715699"
     inkscape:cx="253.27719"
     inkscape:cy="-255.69511"
     inkscape:window-width="3840"
     inkscape:window-height="2071"
     inkscape:window-x="-9"
     inkscape:window-y="-9"
     inkscape:window-maximized="1"
     inkscape:current-layer="layer1"
     inkscape:export-bgcolor="#ffffff00" /><defs
     id="defs1" /><g
     inkscape:label="Layer 1"
     inkscape:groupmode="layer"
     id="layer1"><path
       style="fill:#1e3050;fill-opacity:1;stroke-width:0.4717"
       d="m 140.60375,-20.026865 c -2.1683,-0.45071 -3.53839,-1.659789 -4.15995,-3.671114 l -0.17923,-0.579983 -0.0215,-15.616436 c -0.015,-10.816492 0.004,-15.735527 0.0609,-16.003925 0.11812,-0.555465 0.39967,-0.920495 0.8761,-1.135999 0.38716,-0.175121 0.47096,-0.181512 2.37757,-0.181512 1.4385,0 2.07116,0.02856 2.32502,0.104969 0.42515,0.127916 0.88988,0.590545 1.00322,0.998662 0.049,0.176652 0.081,1.35216 0.0814,2.984586 l 3.6e-4,2.693154 h 3.41004 3.41005 v -11.040058 c 0,-7.735158 0.0255,-11.159028 0.0853,-11.437493 0.10168,-0.474473 0.43834,-0.891234 0.88286,-1.09318 0.27501,-0.124936 0.54534,-0.141324 2.35546,-0.142832 2.29071,-0.0022 2.52565,0.03491 2.95401,0.463308 0.44296,0.442959 0.46502,0.613274 0.46502,3.593408 v 2.684156 h 2.55299 2.55301 l 0.0239,-2.731899 c 0.0261,-2.983885 0.0393,-3.076118 0.5062,-3.563663 0.40898,-0.426989 0.62959,-0.458544 3.02196,-0.432227 l 2.1791,0.02393 0.33214,0.233579 c 0.65939,0.463717 0.64653,0.394375 0.67253,3.622097 l 0.0229,2.848153 h 1.73663 1.73664 l 0.0229,-2.848153 c 0.026,-3.227722 0.0131,-3.15838 0.67253,-3.622097 l 0.33215,-0.233579 2.17909,-0.02393 c 2.39239,-0.0263 2.61298,0.0054 3.02195,0.432227 0.467,0.487545 0.4801,0.579778 0.5062,3.563663 l 0.0239,2.731899 h 2.55025 2.55023 l 0.022,-2.809399 c 0.021,-2.675522 0.0298,-2.824186 0.18404,-3.119421 0.0891,-0.170497 0.30992,-0.414626 0.49086,-0.542499 l 0.32895,-0.232501 2.17911,-0.02393 c 1.86042,-0.02048 2.22708,-0.0053 2.50735,0.101415 0.4631,0.176857 0.84403,0.625518 0.94979,1.118615 0.0605,0.28227 0.0859,3.656467 0.0859,11.440402 v 11.040069 h 3.41003 3.41003 l 3.6e-4,-2.693155 c 2.7e-4,-1.640141 0.0322,-2.80762 0.0817,-2.98591 0.11353,-0.408601 0.47963,-0.795691 0.9096,-0.961609 0.31856,-0.122923 0.61858,-0.140656 2.37954,-0.140656 h 2.01502 l 0.42625,0.211042 c 0.49447,0.244808 0.73353,0.555617 0.85106,1.10647 0.0575,0.269196 0.0759,5.155682 0.0608,16.003935 l -0.0218,15.616424 -0.17905,0.579985 c -0.5426,1.75768 -1.66937,2.904605 -3.4558,3.517622 -0.46852,0.160777 -0.54288,0.161919 -11.96097,0.184466 l -11.4895,0.02263 v -7.022753 c 0,-6.753847 -0.006,-7.052348 -0.15743,-7.79535 -0.55599,-2.728245 -2.61545,-4.773185 -5.38219,-5.344234 -0.88541,-0.182741 -1.59798,-0.182741 -2.4834,0 -1.41876,0.292832 -2.52089,0.881007 -3.51658,1.876694 -0.89436,0.894359 -1.43064,1.818151 -1.81744,3.130768 -0.15566,0.528232 -0.16052,0.73479 -0.18536,7.846963 l -0.0255,7.304463 -11.29312,-0.0087 c -6.21123,-0.0053 -11.36289,-0.02346 -11.44814,-0.04124 z"
       id="castle"
       inkscape:export-filename="castle.svg"
       inkscape:export-xdpi="96"
       inkscape:export-ydpi="96"
       inkscape:label="path10" /><path
       style="fill:#1e3050;fill-opacity:1;stroke-width:0.366318"
       d="m -44.489328,-81.783195 c -0.45872,-0.198767 -3.988439,-3.746728 -4.253743,-4.275732 -0.256599,-0.511624 -0.261187,-1.110113 -0.0118,-1.623912 0.121934,-0.251797 1.594946,-1.828295 4.027012,-4.309795 2.109139,-2.15202 3.814468,-3.9607 3.789622,-4.01928 -0.02491,-0.0585 -0.877477,-1.94412 -1.894732,-4.190086 -2.008537,-4.43463 -2.05006,-4.56766 -1.694119,-5.42716 0.220464,-0.53234 2.671175,-3.00569 3.227718,-3.25753 0.996565,-0.45095 1.589242,-0.19846 3.261779,1.38963 0.696163,0.66102 1.384591,1.30898 1.52981,1.43991 l 0.264058,0.23806 1.813981,-1.78892 c 0.997707,-0.98392 2.51215,-2.47563 3.36545,-3.31494 l 1.551456,-1.526 5.689166,5.69375 5.689167,5.69376 -3.28639,3.343796 c -1.80753,1.83909 -3.2885,3.3714 -3.29107,3.40514 -0.0026,0.0337 0.632207,0.73157 1.410576,1.55076 0.778383,0.81916 1.503194,1.66134 1.610692,1.8715 0.258015,0.5044 0.25926,1.16237 0.004,1.65326 -0.111314,0.21323 -0.84921,1.025365 -1.639904,1.804746 -1.534163,1.51223 -1.841043,1.704888 -2.561658,1.608243 -0.20599,-0.02761 -2.272517,-0.909582 -4.592286,-1.959901 l -4.217807,-1.909658 -3.894813,3.845716 c -2.142152,2.115133 -4.05954,3.92974 -4.260888,4.032461 -0.439591,0.224264 -1.15782,0.238412 -1.633768,0.03216 z m 57.232316,0.0011 c -0.159916,-0.08627 -2.040895,-1.902281 -4.1799405,-4.035677 l -3.889161,-3.878902 -4.20065704,1.908887 c -2.78967296,1.267706 -4.35264096,1.926887 -4.65320096,1.962496 -0.831313,0.09847 -1.167063,-0.115234 -2.825716,-1.79834 -1.321357,-1.340843 -1.507456,-1.569643 -1.608478,-1.977543 -0.124162,-0.50108 -0.08103,-0.8077 0.186834,-1.33178 0.09532,-0.18657 4.134486,-4.29258 8.97575396,-9.124456 9.32108704,-9.303 9.04305204,-9.0496 9.89463454,-9.01759 0.649382,0.0244 1.10561,0.35012 2.553933,1.82324 1.539407,1.56576 1.703218,1.83526 1.605868,2.64195 -0.03488,0.2899 -0.722976,1.92599 -1.957312,4.654586 l -1.903346,4.20756 3.879525,3.88541 c 2.631959,2.63596 3.927656,4.001298 4.029201,4.245755 0.208009,0.500769 0.186835,1.076412 -0.0573,1.55773 -0.235607,0.464517 -3.296498,3.612624 -3.960447,4.073271 -0.531972,0.369091 -1.408033,0.463363 -1.890209,0.203403 z m -39.983766,-34.520295 c -14.496557,-14.51374 -18.928665,-19.00529 -19.179901,-19.43713 -0.179702,-0.30887 -0.404689,-0.79794 -0.499994,-1.08681 -0.271139,-0.82186 -2.02705,-9.85354 -2.02705,-10.42627 0,-0.88982 0.578123,-1.70377 1.450946,-2.04278 0.467478,-0.18159 1.160835,-0.0902 4.848964,0.63915 6.522314,1.28983 6.840862,1.37968 7.947588,2.24176 0.293192,0.22839 8.907024,8.79251 19.141841,19.03139 l 18.6087955,18.61615 -5.669408,5.67003 c -3.118187,3.118506 -5.691751,5.670026 -5.719008,5.670026 -0.02727,0 -8.5335405,-8.493976 -18.9027735,-18.875516 z m 20.9081645,-7.95383 -5.6878175,-5.68843 8.1656155,-8.15023 c 4.49109596,-4.48263 8.346273,-8.28785 8.567105,-8.45605 0.5964,-0.45429 1.588364,-0.83741 2.893854,-1.11768 3.1723485,-0.68106 8.6789805,-1.72519 9.0842595,-1.72251 0.556582,0.003 1.058843,0.22926 1.505895,0.67631 0.430465,0.43047 0.604306,0.85533 0.604306,1.47696 0,0.49216 -1.718702,9.41579 -1.979273,10.27652 -0.178142,0.58847 -0.584391,1.38683 -0.986484,1.93867 -0.178757,0.2453 -3.959778,4.048 -8.4023085,8.45045 l -8.07732304,8.00444 z"
       id="barracks"
       inkscape:export-filename="barracks.svg"
       inkscape:export-xdpi="96"
       inkscape:export-ydpi="96" /><path
       id="cottage"
       style="fill:#1e3050;fill-opacity:1;stroke-width:0.267743"
       d="m -189.71788,-99.479423 c -12.16518,0 -12.26224,10e-4 -12.7881,0.14624 -0.65762,0.18142 -1.05285,0.40771 -1.56858,0.89852 -1.19448,1.13674 -1.47191,3.14174 -0.651,4.70397 0.56111,1.06778 1.85479,1.89895 2.96203,1.90316 0.15739,6.8e-4 0.32704,0.0271 0.37703,0.0588 0.073,0.0463 0.087,1.21851 0.071,5.9672 -0.0185,5.452715 -0.0297,5.929852 -0.14389,6.172544 -0.21035,0.44681 -0.51944,0.730077 -1.38249,1.266681 -4.18458,2.601755 -7.28551,6.043694 -9.47133,10.513178 -1.53958,3.14808 -2.33083,6.306596 -2.54915,10.174876 -0.0474,0.84118 0.0508,2.632391 0.21543,3.922381 0.48228,3.781533 1.75028,7.290082 3.70487,10.363603 l -0.0332,0.0021 a 25.131985,25.131985 0 0 0 0.33427,0.465859 c 0.27256,0.407416 0.56016,0.804532 0.85771,1.19516 a 25.131985,25.131985 0 0 0 0.8729,1.093324 c 0.15668,0.181648 0.31119,0.351254 0.46297,0.51317 a 25.131985,25.131985 0 0 0 18.66647,8.372193 25.131985,25.131985 0 0 0 17.5207,-7.18948 25.131985,25.131985 0 0 0 5.5e-4,-2.7e-4 c 0.71298,-0.54108 1.41621,-1.271469 2.22359,-2.277414 3.27972,-4.086308 5.08854,-8.937484 5.42802,-14.557582 0.23663,-3.91725 -0.68931,-8.364212 -2.51497,-12.078308 -2.11619,-4.305091 -5.05596,-7.681042 -8.85148,-10.164918 -1.79357,-1.173758 -1.95566,-1.332627 -2.08923,-2.047045 -0.0441,-0.235926 -0.0714,-2.538222 -0.0714,-6.031532 0,-6.28249 -0.0464,-5.73601 0.48675,-5.73601 1.08309,0 2.38251,-0.84397 2.94375,-1.91201 0.81147,-1.54422 0.52877,-3.56631 -0.65623,-4.69402 -0.51575,-0.49082 -0.91098,-0.71711 -1.5686,-0.89851 -0.52586,-0.1451 -0.6229,-0.14625 -12.78808,-0.14625 z m -3.85347,7.72162 h 3.85347 3.85347 l 0.0272,6.03915 c 0.0263,5.844976 0.0322,6.065106 0.18125,6.846071 0.36571,1.916386 1.10289,3.500226 2.25556,4.846066 0.56599,0.660857 1.16497,1.156109 2.28971,1.893183 1.27164,0.833354 1.91568,1.293981 2.51415,1.797856 3.4631,2.915792 5.59985,6.876612 6.15635,11.412238 0.0573,0.467548 0.12453,1.113087 0.14929,1.434525 l 0.045,0.584433 -0.4476,-0.0114 c -0.24618,-0.0063 -0.55917,-0.02155 -0.69554,-0.03399 -0.13637,-0.01253 -0.74205,-0.05784 -1.34595,-0.100735 -1.45973,-0.103749 -3.56655,-0.37017 -4.74619,-0.600208 -1.58837,-0.309747 -3.95686,-1.09748 -6.24822,-2.077897 -1.4009,-0.59941 -3.43647,-1.291473 -4.50141,-1.530403 -2.38093,-0.534199 -6.05168,-0.601379 -9.44005,-0.172953 -2.91515,0.368603 -4.8786,0.864632 -6.57046,1.66019 -0.5396,0.253729 -0.65517,0.287111 -0.65472,0.188727 0.001,-0.200035 0.33578,-1.743765 0.49755,-2.294019 0.51061,-1.736842 1.22492,-3.291174 2.13158,-4.637834 1.24649,-1.851405 3.24082,-3.847709 4.98569,-4.990666 0.27272,-0.178653 0.81465,-0.533836 1.20427,-0.789339 2.36804,-1.552913 3.73882,-3.651166 4.29734,-6.577789 0.14904,-0.780965 0.15482,-1.001095 0.1811,-6.846066 z"
       inkscape:export-filename="cottage.svg"
       inkscape:export-xdpi="96"
       inkscape:export-ydpi="96" /><path
       opacity="1"
       fill="#1e3050"
       d="m 127.07921,-137.86414 c -2.11667,0 -16.93333,4.23328 -16.93333,23.28333 v 14.816625 c 0,4.669909 3.7968,8.466535 8.46665,8.466535 h 4.23332 v 16.93342 c 0,2.341429 1.8918,4.233268 4.23336,4.233268 2.34154,0 4.2333,-1.891839 4.2333,-4.233268 v -16.93342 -14.81661 -27.5166 c 0,-2.3416 -1.89176,-4.23328 -4.2333,-4.23328 z m -46.566612,2.11664 c 0,-1.08479 -0.807025,-1.98432 -1.891761,-2.10351 -1.084799,-0.11203 -2.050508,0.59521 -2.288643,1.64048 l -4.00843,18.03132 c -0.185268,0.8336 -0.277743,1.68017 -0.277743,2.52673 0,6.07215 4.643416,11.05966 10.583325,11.60205 v 29.6862 c 0,2.341429 1.891746,4.233268 4.233321,4.233268 2.341559,0 4.233321,-1.891839 4.233321,-4.233268 v -29.6862 c 5.939878,-0.54239 10.583322,-5.5299 10.583322,-11.60205 0,-0.84641 -0.0927,-1.69329 -0.27775,-2.52673 l -4.008451,-18.03132 c -0.238088,-1.0576 -1.230238,-1.75952 -2.301873,-1.64048 -1.071507,0.11202 -1.878548,1.01919 -1.878548,2.10351 v 17.75357 c 0,0.7136 -0.582071,1.29601 -1.296462,1.29601 -0.674736,0 -1.230413,-0.51521 -1.296478,-1.1904 l -1.653642,-18.04461 c -0.09275,-1.0976 -1.005426,-1.93137 -2.103439,-1.93137 -1.098061,0 -2.010821,0.83361 -2.103424,1.93137 l -1.640412,18.04461 c -0.06559,0.67519 -0.621774,1.1904 -1.296494,1.1904 -0.714391,0 -1.296462,-0.58241 -1.296462,-1.29601 v -17.7534 z m 6.389692,20.10829 h -0.04002 -0.04002 l 0.04002,-0.096 z"
       id="inn"
       style="stroke-width:0.132291"
       inkscape:export-filename="inn.svg"
       inkscape:export-xdpi="96"
       inkscape:export-ydpi="96" /><path
       opacity="1"
       fill="#1e3050"
       d="m -89.923316,-70.130962 c 0.61184,0 1.22382,0.1287 1.78246,0.38611 l 25.04756,10.628218 c 2.92641,1.23717 5.107924,4.123685 5.094629,7.608664 -0.06596,13.195552 -5.493699,37.338665 -28.412949,48.3127847 -2.22141,1.063407 -4.802,1.063407 -7.0234,0 -22.919244,-10.9741197 -28.346444,-35.1172327 -28.412954,-48.3127847 -0.0132,-3.484979 2.16821,-6.371494 5.09464,-7.608664 l 25.060854,-10.628218 c 0.54537,-0.252585 1.15721,-0.38611 1.76916,-0.38611 z"
       id="guardhouse"
       style="stroke-width:0.13302"
       inkscape:export-filename="guardhouse.svg"
       inkscape:export-xdpi="96"
       inkscape:export-ydpi="96" /><path
       opacity="1"
       fill="#1e3050"
       d="m 66.799217,5.4149911 c 1.24314,-1.243144 1.24314,-3.254271 0,-4.48444899 -1.24315,-1.230338 -3.25426,-1.243144 -4.48445,0 L 50.660397,12.558515 c -1.24315,1.243143 -1.24315,3.2541 0,4.484448 1.243151,1.230351 3.25426,1.243145 4.48444,0 L 66.786097,5.4017051 Z m -26.39102,-1.812246 c -0.82076,-0.820761 -2.1695,-0.820761 -2.98963,0 l -1.50873,1.494332 c -4.96074,4.9607489 -4.96074,13.0035949 0,17.9643429 l 1.37595,1.37594 -4.03471,4.034708 c -0.44958,-3.611368 -2.05047,-7.116976 -4.82843,-9.894925 l -1.49434,-1.494346 c -0.82076,-0.82076 -2.1695,-0.82076 -2.98963,0 l -1.49433,1.494346 c -4.96075,4.960736 -4.96075,13.003741 0,17.96449 l 1.37594,1.375939 -4.03487,4.034707 c -0.44958,-3.611526 -2.05031,-7.116975 -4.82843,-9.895095 l -1.49433,-1.508736 c -0.82077,-0.820761 -2.16951,-0.820761 -2.98963,0 l -1.4943295,1.494344 c -4.96075,4.960578 -4.96075,13.003595 0,17.964331 l 1.3759395,1.37594 -9.1144895,9.114489 c -1.65353,1.653688 -1.65353,4.339005 0,5.992535 1.65353,1.653687 4.33901,1.653687 5.99254,0 l 9.1144795,-9.114478 1.61385,1.613857 c 4.96075,4.960736 13.00375,4.960736 17.9645,0 l 1.49433,-1.494346 c 0.82077,-0.82076 0.82077,-2.169502 0,-2.989625 l -1.49433,-1.494344 c -2.88387,-2.883866 -6.56147,-4.510997 -10.33155,-4.881378 l 4.21998,-4.219825 1.61385,1.613856 c 4.960751,4.960737 13.003751,4.960737 17.96434,0 l 1.49433,-1.494334 c 0.82077,-0.820772 0.82077,-2.169514 0,-2.989636 L 49.392137,39.5455 c -2.883719,-2.883718 -6.56132,-4.510847 -10.331399,-4.88123 l 4.21982,-4.219973 1.61385,1.613856 c 4.96075,4.960737 13.00376,4.960737 17.9645,0 l 1.49433,-1.508736 c 0.82077,-0.820772 0.82077,-2.169342 0,-2.989636 l -1.49433,-1.507129 c -0.68797,-0.687975 -1.40154,-1.295953 -2.16951,-1.838805 l 6.11158,-6.098453 c 1.24314,-1.243144 1.24314,-3.25426 0,-4.484449 -1.24315,-1.230337 -3.25426,-1.243143 -4.48445,0 l -7.85773,7.857741 c -2.72517,-0.582377 -5.55608,-0.489574 -8.24141,0.2784 0.80636,-2.817645 0.87356,-5.793997 0.1856,-8.63819 l 7.69902,-7.7123089 c 1.24314,-1.243143 1.24314,-3.254259 0,-4.48444899 -1.24315,-1.230337 -3.25426,-1.243144 -4.48445,0 l -6.08517,6.05861999 c -0.48958,-0.660766 -1.03196,-1.295942 -1.64025,-1.891593 z"
       id="mill"
       style="stroke-width:0.132285"
       inkscape:export-filename="mill.svg"
       inkscape:export-xdpi="96"
       inkscape:export-ydpi="96" /><path
       style="fill:#1e3050;fill-opacity:1;stroke-width:0.293641"
       d="m -279.73809,-34.308294 c -3.17355,-0.457317 -5.8623,-2.694047 -6.87261,-5.717219 -0.49278,-1.474546 -0.46835,-0.362769 -0.46885,-21.330683 -2.5e-4,-10.501072 0.0159,-19.092871 0.0357,-19.092871 0.0199,0 0.25589,0.12075 0.52443,0.268351 1.65883,0.911706 3.58652,1.360016 5.84901,1.360281 2.17995,2.43e-4 3.78833,-0.400278 5.7781,-1.438859 l 0.96187,-0.502056 0.55347,0.489964 c 4.29566,3.802786 10.78005,4.652822 16.09194,2.10949 1.04245,-0.499126 2.26997,-1.305153 3.1255,-2.052295 l 0.63935,-0.558354 0.68141,0.390011 c 1.31514,0.752735 2.96365,1.299373 4.50274,1.493102 1.04645,0.131716 3.17794,0.05018 4.16451,-0.159435 1.5043,-0.31951 2.78327,-0.81751 3.92144,-1.526909 l 0.56558,-0.352501 3.66933,0.03681 c 3.7727,0.0378 4.06577,0.0599 5.22318,0.393347 1.71808,0.495038 3.22364,1.384827 4.49592,2.657101 1.33956,1.339558 2.26244,3.068961 2.65057,4.966949 0.25564,1.250071 0.28215,2.265809 0.25351,9.711579 -0.028,7.282756 -0.0307,7.390821 -0.20012,8.137797 -0.68885,3.036712 -2.42433,5.275718 -5.29642,6.83312 -0.27775,0.150615 -2.97852,1.387091 -6.00173,2.747737 l -5.49672,2.473904 -7.2e-4,0.314482 c -7.4e-4,0.492483 -0.21509,1.792542 -0.39611,2.402165 -0.92989,3.131779 -3.70968,5.487705 -7.01795,5.94785 -0.73453,0.102117 -31.22677,0.09946 -31.93661,-0.0033 z m 8.54755,-12.892728 c 0.44169,-0.227326 0.84273,-0.708317 0.98706,-1.183836 0.0785,-0.258637 0.0992,-2.623093 0.0992,-11.320371 0,-10.596902 -0.005,-11.007205 -0.14695,-11.374427 -0.38324,-0.9936 -1.3568,-1.509491 -2.42869,-1.286973 -0.77823,0.161569 -1.30631,0.608585 -1.53605,1.300258 -0.11244,0.338519 -0.12263,1.464809 -0.10417,11.520278 l 0.0205,11.145077 0.21252,0.403074 c 0.38251,0.725448 0.9841,1.041908 1.92614,1.013207 0.45056,-0.01371 0.67333,-0.06333 0.97043,-0.216287 z m 8.42821,0.04764 c 0.5044,-0.256394 0.84734,-0.661568 1.0125,-1.196336 0.14896,-0.482262 0.15288,-0.773711 0.15288,-11.349605 0,-11.898186 0.0237,-11.281953 -0.45973,-11.949323 -0.72882,-1.006111 -2.62479,-1.006111 -3.35361,0 -0.48343,0.667336 -0.45973,0.05194 -0.45973,11.940571 0,11.631782 -0.01,11.331446 0.38866,11.912975 0.20817,0.303806 0.56877,0.568234 0.98786,0.724397 0.39478,0.147101 1.3708,0.100457 1.73117,-0.08267 z m 8.30454,0.07615 c 0.47397,-0.167238 0.80962,-0.45599 1.06427,-0.915563 l 0.22618,-0.408224 0.0205,-11.145077 c 0.0184,-10.05547 0.008,-11.181758 -0.10414,-11.520278 -0.22974,-0.691674 -0.75781,-1.13869 -1.53604,-1.300257 -1.04455,-0.216839 -2.0253,0.284232 -2.42832,1.240631 -0.14187,0.336664 -0.14815,0.748314 -0.16982,11.109988 -0.0234,11.155366 -0.0165,11.432858 0.29644,12.04626 0.18331,0.359321 0.62703,0.734378 1.04394,0.882408 0.4137,0.146891 1.18543,0.151809 1.58705,0.0099 z m 17.95862,-6.878782 c 4.15675,-1.854267 4.33119,-1.956508 4.5404,-2.660979 0.17772,-0.598461 0.17726,-13.97031 -7.3e-4,-14.568903 -0.14351,-0.483235 -0.41511,-0.821688 -0.84305,-1.050617 -0.31536,-0.168686 -0.37788,-0.17177 -3.95254,-0.194404 l -3.63211,-0.02298 v 10.110043 c 0,6.139601 0.0281,10.099875 0.0716,10.084149 0.0395,-0.01425 1.75669,-0.777569 3.81617,-1.696281 z m -28.01124,-27.045306 c -1.39889,-0.09946 -2.81214,-0.484161 -4.03938,-1.09941 -0.95034,-0.476436 -1.63972,-0.976138 -2.60432,-1.887732 -0.9811,-0.92719 -1.3962,-1.166154 -2.25714,-1.299418 -0.68752,-0.106428 -1.36827,0.01111 -1.85594,0.319776 -0.19427,0.123049 -0.66031,0.418414 -1.03566,0.656374 -1.99796,1.266614 -4.67565,1.566938 -7.01231,0.786475 -1.38832,-0.463716 -2.26924,-1.013527 -3.34221,-2.086026 -1.1805,-1.179968 -1.8362,-2.310213 -2.26773,-3.90896 -0.18176,-0.673416 -0.2043,-0.898277 -0.2043,-2.038812 0,-1.147774 0.0219,-1.363231 0.20923,-2.05885 0.84497,-3.137538 3.35052,-5.535669 6.46285,-6.185786 2.44744,-0.511221 4.60711,-0.07371 6.69503,1.35618 0.96045,0.657765 1.5939,0.800214 2.6048,0.585718 0.66421,-0.140935 1.11808,-0.421608 1.94036,-1.199939 1.53102,-1.44917 2.88241,-2.21884 4.74657,-2.70335 3.13379,-0.81449 6.52842,-0.1824 9.03243,1.68186 0.29786,0.221763 0.85701,0.707042 1.24256,1.078407 0.96044,0.925101 1.63496,1.230376 2.71858,1.230376 0.58115,0 1.05116,-0.177892 1.7409,-0.658892 1.13206,-0.789482 2.29099,-1.26898 3.55143,-1.469362 0.97305,-0.154709 1.5595,-0.156619 2.54345,-0.0089 2.37381,0.357794 4.28236,1.482888 5.66351,3.338648 2.15412,2.894329 2.24047,6.687376 0.22202,9.752525 -0.35565,0.540073 -1.31108,1.546857 -1.89431,1.996129 -2.4879,1.916479 -6.1938,2.264935 -8.98076,0.844454 -0.19866,-0.101241 -0.70044,-0.411474 -1.11506,-0.689362 -0.97429,-0.652981 -1.50368,-0.780707 -2.47351,-0.596781 -0.74139,0.140602 -1.16369,0.398178 -2.09354,1.276926 -0.48446,0.457847 -1.12891,0.999844 -1.43212,1.204448 -1.94164,1.310204 -4.37898,1.952453 -6.76543,1.782695 z"
       id="brewery"
       inkscape:export-filename="brewery.svg"
       inkscape:export-xdpi="96"
       inkscape:export-ydpi="96" /></g></svg>
