<?xml version="1.0" encoding="UTF-8" standalone="no"?>
<!-- Created with Inkscape (http://www.inkscape.org/) -->

<svg
   width="223.99933"
   height="256.00003"
   viewBox="0 0 59.266488 67.733341"
   version="1.1"
   id="svg1"
   xml:space="preserve"
   inkscape:version="1.3 (0e150ed6c4, 2023-07-21)"
   sodipodi:docname="icons_drawing.svg"
   inkscape:export-filename="mill.svg"
   inkscape:export-xdpi="96"
   inkscape:export-ydpi="96"
   xmlns:inkscape="http://www.inkscape.org/namespaces/inkscape"
   xmlns:sodipodi="http://sodipodi.sourceforge.net/DTD/sodipodi-0.dtd"
   xmlns="http://www.w3.org/2000/svg"
   xmlns:svg="http://www.w3.org/2000/svg"><sodipodi:namedview
     id="namedview1"
     pagecolor="#ffffff"
     bordercolor="#666666"
     borderopacity="1.0"
     inkscape:showpageshadow="2"
     inkscape:pageopacity="0.0"
     inkscape:pagecheckerboard="0"
     inkscape:deskcolor="#d1d1d1"
     inkscape:document-units="px"
     inkscape:zoom="2.3395533"
     inkscape:cx="265.64901"
     inkscape:cy="49.3684"
     inkscape:window-width="3840"
     inkscape:window-height="2071"
     inkscape:window-x="-9"
     inkscape:window-y="-9"
     inkscape:window-maximized="1"
     inkscape:current-layer="layer1"
     inkscape:export-bgcolor="#ffffff00" /><defs
     id="defs1" /><g
     inkscape:label="Layer 1"
     inkscape:groupmode="layer"
     id="layer1"
     transform="translate(-4.2334204)"><path
       opacity="1"
       fill="#1e3050"
       d="m 59.266607,1.5925e-4 c -2.116669,0 -16.933331,4.23327995 -16.933331,23.28333075 v 14.81662 c 0,4.669909 3.796799,8.466535 8.466657,8.466535 h 4.233321 v 16.93342 c 0,2.341429 1.891793,4.233268 4.233353,4.233268 2.341543,0 4.233305,-1.891839 4.233305,-4.233268 V 46.566645 31.75004 4.2334393 c 0,-2.3416 -1.891762,-4.23328005 -4.233305,-4.23328005 z M 12.699998,2.1167992 c 0,-1.0847899 -0.807025,-1.98431995 -1.891761,-2.10350995 -1.0847992,-0.11203 -2.0505082,0.59521 -2.2886432,1.64047995 L 4.5111636,19.685089 c -0.1852678,0.8336 -0.2777429,1.68017 -0.2777429,2.526722 0,6.072158 4.6434161,11.05966 10.5833253,11.602053 v 29.686201 c 0,2.341429 1.891746,4.233268 4.233321,4.233268 2.341559,0 4.233321,-1.891839 4.233321,-4.233268 V 33.813864 c 5.939878,-0.542393 10.583326,-5.529895 10.583326,-11.602053 0,-0.846402 -0.09275,-1.693282 -0.277759,-2.526722 L 29.580509,1.6537693 C 29.342421,0.59616925 28.350271,-0.10575075 27.278636,0.01328925 26.207129,0.12530925 25.400088,1.0324793 25.400088,2.1167993 V 19.870369 c 0,0.7136 -0.582071,1.29601 -1.296462,1.29601 -0.674736,0 -1.230413,-0.51521 -1.296478,-1.1904 L 21.153506,1.9313693 C 21.060756,0.83376925 20.14808,-7.4999998e-7 19.050067,-7.4999998e-7 17.952006,-7.4999998e-7 17.039246,0.83360925 16.946643,1.9313693 L 15.306231,19.975979 c -0.06559,0.67519 -0.621774,1.1904 -1.296494,1.1904 -0.714391,0 -1.296462,-0.58241 -1.296462,-1.29601 V 2.1169693 Z M 19.08969,22.225083 h -0.04002 -0.04002 l 0.04002,-0.09605 z"
       id="inn"
       style="stroke-width:0.132291"
       inkscape:export-filename="inn.svg"
       inkscape:export-xdpi="96"
       inkscape:export-ydpi="96" /></g></svg>
