<?xml version="1.0" encoding="UTF-8" standalone="no"?>
<!-- Created with Inkscape (http://www.inkscape.org/) -->

<svg
   width="255.99998"
   height="255.97746"
   viewBox="0 0 67.733328 67.72737"
   version="1.1"
   id="svg1"
   xml:space="preserve"
   inkscape:version="1.3 (0e150ed6c4, 2023-07-21)"
   sodipodi:docname="icons_drawing.svg"
   inkscape:export-filename="mill.svg"
   inkscape:export-xdpi="96"
   inkscape:export-ydpi="96"
   xmlns:inkscape="http://www.inkscape.org/namespaces/inkscape"
   xmlns:sodipodi="http://sodipodi.sourceforge.net/DTD/sodipodi-0.dtd"
   xmlns="http://www.w3.org/2000/svg"
   xmlns:svg="http://www.w3.org/2000/svg"><sodipodi:namedview
     id="namedview1"
     pagecolor="#ffffff"
     bordercolor="#666666"
     borderopacity="1.0"
     inkscape:showpageshadow="2"
     inkscape:pageopacity="0.0"
     inkscape:pagecheckerboard="0"
     inkscape:deskcolor="#d1d1d1"
     inkscape:document-units="px"
     inkscape:zoom="2.3395533"
     inkscape:cx="265.64901"
     inkscape:cy="49.3684"
     inkscape:window-width="3840"
     inkscape:window-height="2071"
     inkscape:window-x="-9"
     inkscape:window-y="-9"
     inkscape:window-maximized="1"
     inkscape:current-layer="layer1"
     inkscape:export-bgcolor="#ffffff00" /><defs
     id="defs1" /><g
     inkscape:label="Layer 1"
     inkscape:groupmode="layer"
     id="layer1"
     transform="translate(0,-0.00298014)"><path
       opacity="1"
       fill="#1e3050"
       d="m 66.799217,5.4149911 c 1.24314,-1.243144 1.24314,-3.254271 0,-4.48444899 -1.24315,-1.230338 -3.25426,-1.243144 -4.48445,0 L 50.660397,12.558515 c -1.24315,1.243143 -1.24315,3.2541 0,4.484448 1.243151,1.230351 3.25426,1.243145 4.48444,0 L 66.786097,5.4017051 Z m -26.39102,-1.812246 c -0.82076,-0.820761 -2.1695,-0.820761 -2.98963,0 l -1.50873,1.494332 c -4.96074,4.9607489 -4.96074,13.0035949 0,17.9643429 l 1.37595,1.37594 -4.03471,4.034708 c -0.44958,-3.611368 -2.05047,-7.116976 -4.82843,-9.894925 l -1.49434,-1.494346 c -0.82076,-0.82076 -2.1695,-0.82076 -2.98963,0 l -1.49433,1.494346 c -4.96075,4.960736 -4.96075,13.003741 0,17.96449 l 1.37594,1.375939 -4.03487,4.034707 c -0.44958,-3.611526 -2.05031,-7.116975 -4.82843,-9.895095 l -1.49433,-1.508736 c -0.82077,-0.820761 -2.16951,-0.820761 -2.98963,0 l -1.4943295,1.494344 c -4.96075,4.960578 -4.96075,13.003595 0,17.964331 l 1.3759395,1.37594 -9.1144895,9.114489 c -1.65353,1.653688 -1.65353,4.339005 0,5.992535 1.65353,1.653687 4.33901,1.653687 5.99254,0 l 9.1144795,-9.114478 1.61385,1.613857 c 4.96075,4.960736 13.00375,4.960736 17.9645,0 l 1.49433,-1.494346 c 0.82077,-0.82076 0.82077,-2.169502 0,-2.989625 l -1.49433,-1.494344 c -2.88387,-2.883866 -6.56147,-4.510997 -10.33155,-4.881378 l 4.21998,-4.219825 1.61385,1.613856 c 4.960751,4.960737 13.003751,4.960737 17.96434,0 l 1.49433,-1.494334 c 0.82077,-0.820772 0.82077,-2.169514 0,-2.989636 L 49.392137,39.5455 c -2.883719,-2.883718 -6.56132,-4.510847 -10.331399,-4.88123 l 4.21982,-4.219973 1.61385,1.613856 c 4.96075,4.960737 13.00376,4.960737 17.9645,0 l 1.49433,-1.508736 c 0.82077,-0.820772 0.82077,-2.169342 0,-2.989636 l -1.49433,-1.507129 c -0.68797,-0.687975 -1.40154,-1.295953 -2.16951,-1.838805 l 6.11158,-6.098453 c 1.24314,-1.243144 1.24314,-3.25426 0,-4.484449 -1.24315,-1.230337 -3.25426,-1.243143 -4.48445,0 l -7.85773,7.857741 c -2.72517,-0.582377 -5.55608,-0.489574 -8.24141,0.2784 0.80636,-2.817645 0.87356,-5.793997 0.1856,-8.63819 l 7.69902,-7.7123089 c 1.24314,-1.243143 1.24314,-3.254259 0,-4.48444899 -1.24315,-1.230337 -3.25426,-1.243144 -4.48445,0 l -6.08517,6.05861999 c -0.48958,-0.660766 -1.03196,-1.295942 -1.64025,-1.891593 z"
       id="mill"
       style="stroke-width:0.132285" /></g></svg>
